# AST/ASF file generated using VICON BodyLanguage
# -----------------------------------------------
:version 1.10
:name VICON
:units
  mass 1.0
  length 0.45
  angle deg
:documentation
   .ast/.asf automatically generated from VICON data using
   VICON BodyBuilder and BodyLanguage model FoxedUp or BRILLIANT.MOD
:root
   order TX TY TZ RX RY RZ
   axis XYZ
   position 0 0 0  
   orientation 0 -0 0 
:bonedata
  begin
     id 1 
     name lhipjoint
     direction 0.500677 -0.737119 0.453848 
     length 2.34727 
     axis 0 -0 0  XYZ
  end
  begin
     id 2 
     name lfemur
     direction 0.34202 -0.939693 0  
     length 7.53653  
     axis 0 -0 20  XYZ
    dof rx ry rz
    limits (-160.0 20.0)
           (-70.0 70.0)
           (-60.0 70.0)
  end
  begin
     id 3 
     name ltibia
     direction 0.34202 -0.939693 0   
     length 6.85572   
     axis 0 -0 20   XYZ
    dof rx
    limits (-10.0 170.0)
  end
  begin
     id 4 
     name lfoot
     direction 0.155313 -0.426718 0.890949   
     length 2.18324   
     axis -90 -1.13533e-015 20   XYZ
    dof rx rz
    limits (-45.0 90.0)
           (-70.0 20.0)
  end
  begin
     id 5 
     name ltoes
     direction 1.53474e-011 -4.21647e-011 1   
     length 1.06748   
     axis -90 -1.13533e-015 20   XYZ
    dof rx
    limits (-90.0 20.0)
  end
  begin
     id 6 
     name rhipjoint
     direction -0.632471 -0.659587 0.406111   
     length 2.62319  
     axis 0 -0 0  XYZ 
  end
  begin
     id 7 
     name rfemur
     direction -0.34202 -0.939693 0   
     length 7.21735   
     axis 0 -0 -20   XYZ
    dof rx ry rz
    limits (-160.0 20.0)
           (-70.0 70.0)
           (-70.0 60.0)
  end
  begin
     id 8 
     name rtibia
     direction -0.34202 -0.939693 0   
     length 7.02558   
     axis 0 -0 -20   XYZ
    dof rx
    limits (-10.0 170.0)
 end
 begin
     id 9 
     name rfoot
     direction -0.16057 -0.441164 0.882945   
     length 2.10014  
     axis -90 1.13533e-015 -20   XYZ
    dof rx rz
    limits (-45.0 90.0)
           (-20.0 70.0)
  end
  begin
     id 10 
     name rtoes
     direction -1.53553e-011 -4.2192e-011 1   
     length 1.02554   
     axis -90 1.13533e-015 -20   XYZ
    dof rx
    limits (-90.0 20.0)
  end
  begin
     id 11 
     name lowerback
     direction 0.0401429 0.998861 -0.0258085   
     length 1.80848   
     axis 0 -0 0   XYZ
    dof rx ry rz
    limits (-20.0 45.0)
           (-30.0 30.0)
           (-30.0 30.0)
  end
  begin
     id 12 
     name upperback
     direction -0.0130978 0.999914 -0.000352645   
     length 1.8116   
     axis 0 -0 0   XYZ
    dof rx ry rz
    limits (-20.0 45.0)
           (-30.0 30.0)
           (-30.0 30.0)
  end
  begin
     id 13 
     name thorax
     direction -0.0300198 0.999453 0.0138573   
     length 1.81778   
     axis 0 -0 0   XYZ
    dof rx ry rz
    limits (-20.0 45.0)
           (-30.0 30.0)
           (-30.0 30.0)
  end
  begin
     id 14 
     name lowerneck
     direction -0.0401726 0.999191 -0.00173647   
     length 2.10594   
     axis 0 -0 0   XYZ
    dof rx ry rz
    limits (-20.0 45.0)
           (-30.0 30.0)
           (-30.0 30.0)
  end
  begin
     id 15 
     name upperneck
     direction 0.0119835 0.998501 0.0534085   
     length 2.07325   
     axis 0 -0 0   XYZ
    dof rx ry rz
    limits (-20.0 45.0)
           (-30.0 30.0)
           (-30.0 30.0)
  end
  begin
     id 16
     name head
     direction 0.00628309 0.999826 0.0175921  
     length 2.15096  
     axis 0 -0 0   XYZ
    dof rx ry rz
    limits (-20.0 45.0)
           (-30.0 30.0)
           (-30.0 30.0)
  end
  begin
     id 17 
     name lclavicle
     direction 0.895501 0.429681 -0.115981  
     length 4.18092  
     axis 0 -0 0   XYZ
    dof ry rz
    limits (-20.0 10.0)
           (0.0 20.0)
  end
  begin
     id 18 
     name lhumerus
     direction 1 -4.48961e-011 -3.38433e-028   
     length 5.77237   
     axis 180 -30 -90   XYZ
    dof rx ry rz
    limits (-60.0 90.0)
           (-90.0 90.0)
           (-90.0 90.0)
  end
  begin
     id 19
     name lradius
     direction 1 -4.4901e-011 1.11983e-026   
     length 2.91878   
     axis 180 -30 -90   XYZ
    dof rx
    limits (-10.0 170.0)
  end
  begin
     id 20
     name lwrist
     direction 1 -4.48934e-011 1.88176e-026   
     length 1.45939   
     axis -1.23311e-014 90 90   XYZ
    dof ry
    limits (-180.0 0.0)
 end
  begin
     id 21 
     name lhand
     direction 1 -4.4895e-011 3.76352e-026   
     length 1.06566   
     axis -2.40147e-014 90 90   XYZ
    dof rx rz
    limits (-90.0 90.0)
           (-45.0 45.0)
  end
  begin
     id 22 
     name lfingers
     direction 1 -4.49005e-011 7.52705e-026   
     length 0.859162   
     axis -4.80295e-014 90 90   XYZ
    dof rx
    limits (0.0 90.0)
  end
  begin
     id 23
     name lthumb
     direction 0.707107 -6.34885e-011 0.707107   
     length 1.23359   
     axis -90 45 -9.86935e-015   XYZ
    dof rx rz
    limits (-45.0 45.0)
           (-45.0 45.0)
  end
  begin
     id 24 
     name rclavicle
     direction -0.91006 0.40451 -0.0903492   
     length 4.23293  
     axis 0 -0 0   XYZ 
    dof ry rz
    limits (-10.0 20.0)
           (-20.0 0.0)
  end
  begin
     id 25 
     name rhumerus
     direction -1 -4.4897e-011 1.7415e-027  
     length 5.49854   
     axis 180 30 90   XYZ
    dof rx ry rz
    limits (-90.0 60.0)
           (-90.0 90.0)
           (-90.0 90.0)
  end
  begin
     id 26 
     name rradius
     direction -1 -4.48963e-011 1.21259e-026   
     length 3.1186   
     axis 180 30 90   XYZ
    dof rx
    limits (-10.0 170.0)
  end
  begin
     id 27 
     name rwrist
     direction -1 -4.48967e-011 1.88176e-026   
     length 1.5593   
     axis -1.23311e-014 -90 -90   XYZ
    dof ry
    limits (-180.0 0.0)
  end
  begin
     id 28
     name rhand
     direction -1 -4.4895e-011 3.76352e-026   
     length 0.71207   
     axis -2.40147e-014 -90 -90   XYZ
    dof rx rz
    limits (-90.0 90.0)
           (-45.0 45.0)
  end
  begin
     id 29
     name rfingers
     direction -1 -4.49005e-011 7.52705e-026   
     length 0.574089   
     axis -4.80295e-014 -90 -90   XYZ
    dof rx
    limits (0.0 90.0)
  end
  begin
     id 30
     name rthumb
     direction -0.707107 -6.34982e-011 0.707107   
     length 0.824281   
     axis -90 -45 9.86935e-015   XYZ
    dof rx rz
    limits (-45.0 45.0)
           (-45.0 45.0)
  end
:hierarchy
  begin
    root lhipjoint rhipjoint lowerback
    lhipjoint lfemur
    lfemur ltibia
    ltibia lfoot
    lfoot ltoes
    rhipjoint rfemur
    rfemur rtibia
    rtibia rfoot
    rfoot rtoes
    lowerback upperback
    upperback thorax
    thorax lowerneck lclavicle rclavicle
    lowerneck upperneck
    upperneck head
    lclavicle lhumerus
    lhumerus lradius
    lradius lwrist
    lwrist lhand lthumb
    lhand lfingers
    rclavicle rhumerus
    rhumerus rradius
    rradius rwrist
    rwrist rhand rthumb
    rhand rfingers
  end

#!OML:ASF C:\ViconDB\ViconDB\414\Spring2016\042216\male.ASF
:FULLY-SPECIFIED
:DEGREES
1
root -20.899 17.1374 10.5451 -136.844 81.4848 -135.826
lowerback 2.41546 -1.52071 3.41725
upperback 1.14889 -1.9488 -1.72595
thorax -0.348042 -0.957789 -3.63731
lowerneck 9.12554 7.59668 -5.35474
upperneck -18.1679 12.323 11.2705
head -8.17182 5.45419 3.30873
rclavicle 1.44119e-014 2.22639e-014
rhumerus -32.4487 -3.76746 -91.2146
rradius 32.2732
rwrist 30.1262
rhand 10.3013 -21.0997
rfingers 7.12502
rthumb 35.4121 -47.5585
lclavicle 1.44119e-014 2.22639e-014
lhumerus -38.6018 22.3166 72.8228
lradius 30.6313
lwrist -11.3179
lhand -13.3689 16.848
lfingers 7.12502
lthumb 12.7376 46.4395
rfemur -14.5071 11.088 11.4269
rtibia 19.7624
rfoot -9.26978 -9.29545
rtoes -21.2013
lfemur -4.47682 -13.2309 -13.1124
ltibia 25.6999
lfoot -27.3841 18.3562
ltoes -14.6691
2
root -20.8596 17.1319 10.5865 -138.374 81.4794 -137.356
lowerback 2.3834 -1.56694 3.36622
upperback 1.15667 -2.01242 -1.75683
thorax -0.327147 -0.989054 -3.63939
lowerneck 9.05095 7.57587 -5.27906
upperneck -18.2177 12.334 11.3211
head -8.17467 5.45429 3.31459
rclavicle -4.82053e-015 1.11319e-014
rhumerus -32.4172 -3.93072 -91.1893
rradius 32.3184
rwrist 30.3606
rhand 10.1523 -21.1403
rfingers 7.12502
rthumb 35.2708 -47.6327
lclavicle -4.82053e-015 1.11319e-014
lhumerus -38.4737 22.3602 72.7737
lradius 30.4987
lwrist -11.6483
lhand -13.4562 17.1694
lfingers 7.12502
lthumb 12.6534 46.7661
rfemur -14.5428 10.9229 11.1463
rtibia 19.6506
rfoot -8.92008 -7.92875
rtoes -22.1544
lfemur -4.21697 -13.5417 -13.1861
ltibia 25.4864
lfoot -27.396 18.6341
ltoes -14.9404
3
root -20.8178 17.1246 10.6284 -140.133 81.5471 -139.113
lowerback 2.3254 -1.5907 3.13529
upperback 1.19372 -2.05011 -1.67865
thorax -0.249315 -1.00648 -3.42961
lowerneck 8.9137 7.57316 -5.49657
upperneck -18.2791 12.3332 11.4182
head -8.18982 5.465 3.3872
rclavicle 3.6477e-014 2.06736e-014
rhumerus -32.3331 -3.86946 -90.9802
rradius 32.3833
rwrist 30.592
rhand 10.0418 -21.1004
rfingers 7.12502
rthumb 35.166 -47.6175
lclavicle 3.6477e-014 2.06736e-014
lhumerus -38.3252 22.3232 73.0658
lradius 30.5414
lwrist -11.6531
lhand -13.3731 16.9665
lfingers 7.12502
lthumb 12.7336 46.5582
rfemur -14.5197 11.1044 10.7425
rtibia 19.512
rfoot -8.61809 -6.9884
rtoes -21.4754
lfemur -4.00473 -13.3726 -13.2826
ltibia 25.305
lfoot -27.3935 18.4175
ltoes -15.0635
4
root -20.7753 17.1193 10.6748 -141.276 81.506 -140.237
lowerback 2.20902 -1.59758 3.2161
upperback 1.21357 -2.06096 -1.75768
thorax -0.170292 -1.00956 -3.56014
lowerneck 8.98795 7.57469 -5.34905
upperneck -18.3667 12.4007 11.5135
head -8.23693 5.47695 3.38348
rclavicle -1.45113e-014 -9.54166e-015
rhumerus -32.3668 -4.2372 -91.0085
rradius 32.4558
rwrist 31.0042
rhand 10.1106 -20.9884
rfingers 7.12502
rthumb 35.2312 -47.4902
lclavicle -1.45113e-014 -9.54166e-015
lhumerus -38.128 22.0798 73.1314
lradius 30.6121
lwrist -11.5033
lhand -13.5487 17.1104
lfingers 7.12502
lthumb 12.5642 46.7126
rfemur -14.425 11.0768 10.5934
rtibia 19.3776
rfoot -8.32843 -6.05697
rtoes -21.5987
lfemur -3.7595 -13.3793 -13.2321
ltibia 25.1206
lfoot -27.44 18.3698
ltoes -15.3086
5
root -20.735 17.1165 10.7241 -142.489 81.4365 -141.464
lowerback 2.17262 -1.58658 3.19519
upperback 1.23381 -2.04777 -1.69334
thorax -0.124965 -1.00203 -3.48371
lowerneck 8.91878 7.52011 -5.5491
upperneck -18.4615 12.3405 11.64
head -8.27102 5.45289 3.46792
rclavicle 2.08724e-014 -7.95139e-015
rhumerus -32.3246 -4.3074 -90.8413
rradius 32.6131
rwrist 30.7006
rhand 9.9799 -20.975
rfingers 7.12502
rthumb 35.1073 -47.506
lclavicle 2.08724e-014 -7.95139e-015
lhumerus -37.8234 22.3554 73.2157
lradius 30.291
lwrist -12.0451
lhand -13.6968 16.857
lfingers 7.12502
lthumb 12.4214 46.4679
rfemur -14.3195 11.8623 10.3065
rtibia 19.189
rfoot -7.99692 -5.80918
rtoes -20.9254
lfemur -3.62561 -13.2733 -13.1225
ltibia 25.0025
lfoot -27.4013 18.0118
ltoes -15.1738
6
root -20.6923 17.1106 10.7709 -144.422 81.3981 -143.437
lowerback 2.03958 -1.61159 3.17794
upperback 1.27019 -2.08497 -1.72323
thorax -0.0167601 -1.01786 -3.50839
lowerneck 8.8205 7.50805 -5.50937
upperneck -18.4667 12.3381 11.6374
head -8.25175 5.45485 3.46458
rclavicle 3.74709e-014 1.74931e-014
rhumerus -32.2747 -4.37325 -90.8114
rradius 32.7238
rwrist 30.7047
rhand 9.94138 -20.9512
rfingers 7.12502
rthumb 35.0707 -47.4907
lclavicle 3.74709e-014 1.74931e-014
lhumerus -37.5416 22.4997 73.2553
lradius 30.2894
lwrist -12.2637
lhand -13.5131 16.5347
lfingers 7.12502
lthumb 12.5986 46.1348
rfemur -14.1859 12.1393 9.98803
rtibia 18.9917
rfoot -7.65767 -5.37526
rtoes -20.5637
lfemur -3.52519 -13.2679 -13.1543
ltibia 24.933
lfoot -27.4857 17.7975
ltoes -15.2671
7
root -20.6494 17.098 10.8211 -145.822 81.3066 -144.817
lowerback 2.10376 -1.60538 3.0197
upperback 1.21974 -2.07835 -1.53584
thorax -0.091674 -1.01832 -3.22334
lowerneck 8.85746 7.50743 -5.78951
upperneck -18.4955 12.2978 11.6711
head -8.2836 5.44698 3.52501
rclavicle 5.46658e-015 -1.03368e-014
rhumerus -32.3891 -4.35308 -90.477
rradius 32.8863
rwrist 30.4839
rhand 9.96427 -20.921
rfingers 7.12502
rthumb 35.0925 -47.4554
lclavicle 5.46658e-015 -1.03368e-014
lhumerus -37.4094 22.653 73.5818
lradius 30.5047
lwrist -11.8401
lhand -13.2619 16.7176
lfingers 7.12502
lthumb 12.8407 46.3026
rfemur -13.9568 12.4834 9.82866
rtibia 18.7821
rfoot -7.03825 -4.94057
rtoes -20.0857
lfemur -3.41097 -13.1427 -13.0662
ltibia 24.9264
lfoot -27.5524 17.6823
ltoes -15.6549
8
root -20.6055 17.0828 10.8717 -147.232 81.2495 -146.15
lowerback 2.08195 -1.62199 3.29166
upperback 1.27222 -2.09586 -1.70668
thorax -0.0426088 -1.02336 -3.55385
lowerneck 8.89594 7.45423 -5.54448
upperneck -18.5976 12.287 11.6753
head -8.30914 5.42417 3.48636
rclavicle 1.13307e-014 -1.82882e-014
rhumerus -32.3691 -4.58833 -90.6687
rradius 32.9591
rwrist 30.5099
rhand 9.77937 -20.8052
rfingers 7.12502
rthumb 34.9171 -47.3806
lclavicle 1.13307e-014 -1.82882e-014
lhumerus -37.0434 22.4043 73.5605
lradius 30.5325
lwrist -11.5159
lhand -13.279 16.7594
lfingers 7.12502
lthumb 12.8243 46.3455
rfemur -13.6173 12.7363 9.73837
rtibia 18.533
rfoot -6.41226 -4.5918
rtoes -19.2109
lfemur -3.25894 -13.0263 -13.0093
ltibia 25.0203
lfoot -27.7546 17.4428
ltoes -15.7523
9
root -20.559 17.0631 10.9276 -148.648 81.2204 -147.519
lowerback 2.04342 -1.60825 3.38191
upperback 1.29896 -2.07692 -1.75904
thorax 0.0030976 -1.01181 -3.66095
lowerneck 8.86271 7.49099 -5.76101
upperneck -18.6414 12.3946 11.9958
head -8.36425 5.46646 3.61617
rclavicle -2.44505e-014 1.51076e-014
rhumerus -32.4188 -4.81911 -90.6524
rradius 33.087
rwrist 30.4515
rhand 9.55341 -20.7534
rfingers 7.12502
rthumb 34.7026 -47.3784
lclavicle -2.44505e-014 1.51076e-014
lhumerus -36.8079 22.3438 73.6606
lradius 30.6331
lwrist -11.7316
lhand -13.4806 16.6738
lfingers 7.12502
lthumb 12.6299 46.2719
rfemur -13.242 12.9075 9.68398
rtibia 18.244
rfoot -5.25824 -4.08502
rtoes -19.2603
lfemur -3.10521 -13.3154 -13.0216
ltibia 25.1874
lfoot -28.0371 17.6145
ltoes -15.8518
10
root -20.5167 17.0437 10.9846 -149.738 81.1021 -148.648
lowerback 2.02461 -1.60266 3.36731
upperback 1.24831 -2.07115 -1.64802
thorax -0.0333579 -1.01136 -3.53781
lowerneck 8.91572 7.4493 -5.88402
upperneck -18.6819 12.324 12.0203
head -8.38963 5.43492 3.65143
rclavicle 8.94531e-015 9.54166e-015
rhumerus -32.5066 -4.70312 -90.5115
rradius 33.2783
rwrist 29.8936
rhand 9.92605 -20.7736
rfingers 7.12502
rthumb 35.0562 -47.3166
lclavicle 8.94531e-015 9.54166e-015
lhumerus -36.5775 22.2468 73.9756
lradius 30.7941
lwrist -11.6187
lhand -13.4095 16.6798
lfingers 7.12502
lthumb 12.6985 46.2738
rfemur -12.9695 12.834 9.72074
rtibia 17.928
rfoot -3.93314 -3.35217
rtoes -18.8937
lfemur -3.17541 -13.1982 -12.8465
ltibia 25.4221
lfoot -28.2581 17.3637
ltoes -16.2956
11
root -20.4671 17.0241 11.0412 -151.539 81.0087 -150.486
lowerback 1.93856 -1.60396 3.37868
upperback 1.22462 -2.07568 -1.64793
thorax -0.0102854 -1.01373 -3.54612
lowerneck 8.89475 7.40501 -5.95265
upperneck -18.61 12.2494 12.067
head -8.36141 5.40261 3.68824
rclavicle 4.52235e-015 -3.65764e-014
rhumerus -32.5754 -4.70801 -90.4438
rradius 33.3062
rwrist 30.0029
rhand 10.0479 -20.5147
rfingers 7.12502
rthumb 35.1717 -47.0305
lclavicle 4.52235e-015 -3.65764e-014
lhumerus -36.3321 22.0138 74.2333
lradius 30.9248
lwrist -11.3621
lhand -13.4421 16.6512
lfingers 7.12502
lthumb 12.667 46.2471
rfemur -12.6435 13.0225 9.64319
rtibia 17.662
rfoot -2.62182 -3.08229
rtoes -18.5738
lfemur -3.17455 -13.2653 -12.835
ltibia 25.6216
lfoot -28.486 17.2117
ltoes -16.3575
